<?xml version="1.0" encoding="UTF-8" standalone="no"?><!DOCTYPE svg PUBLIC "-//W3C//DTD SVG 1.1//EN" "http://www.w3.org/Graphics/SVG/1.1/DTD/svg11.dtd"><svg width="100%" height="100%" viewBox="0 0 300 300" version="1.1" xmlns="http://www.w3.org/2000/svg" xmlns:xlink="http://www.w3.org/1999/xlink" xml:space="preserve" xmlns:serif="http://www.serif.com/" style="fill-rule:evenodd;clip-rule:evenodd;stroke-linejoin:round;stroke-miterlimit:2;"><g><path d="M26,163.476l1.968,0l3.792,15.048l4.368,-15.048l1.92,0l4.344,15.048l3.792,-15.048l1.968,0l-4.536,17.664l-2.064,0l-4.464,-15l-4.488,15l-2.064,0l-4.536,-17.664Z" style="fill:#858585;fill-rule:nonzero;"/><path d="M49.784,163.476l1.968,0l3.792,15.048l4.368,-15.048l1.92,0l4.344,15.048l3.792,-15.048l1.968,0l-4.536,17.664l-2.064,0l-4.464,-15l-4.488,15l-2.064,0l-4.536,-17.664Z" style="fill:#858585;fill-rule:nonzero;"/><path d="M73.568,163.476l1.968,0l3.792,15.048l4.368,-15.048l1.92,0l4.344,15.048l3.792,-15.048l1.968,0l-4.536,17.664l-2.064,0l-4.464,-15l-4.488,15l-2.064,0l-4.536,-17.664Z" style="fill:#858585;fill-rule:nonzero;"/><path d="M97.448,181.164c-0.112,0 -0.204,-0.036 -0.276,-0.108c-0.072,-0.072 -0.108,-0.164 -0.108,-0.276l0,-1.92c0,-0.256 0.128,-0.384 0.384,-0.384l1.056,0c0.256,0 0.384,0.128 0.384,0.384l0,1.92c0,0.256 -0.128,0.384 -0.384,0.384l-1.056,0Z" style="fill:#858585;fill-rule:nonzero;"/><path d="M102.224,163.476l6.984,0c2.064,0 3.548,0.736 4.452,2.208c0.904,1.472 1.356,3.68 1.356,6.624c0,2.816 -0.492,4.992 -1.476,6.528c-0.984,1.536 -2.428,2.304 -4.332,2.304l-6.984,0l0,-17.664Zm6.84,15.96c1.36,0 2.376,-0.628 3.048,-1.884c0.672,-1.256 1.008,-3.004 1.008,-5.244c0,-1.744 -0.14,-3.136 -0.42,-4.176c-0.28,-1.04 -0.716,-1.788 -1.308,-2.244c-0.592,-0.456 -1.368,-0.684 -2.328,-0.684l-4.92,0l0,14.232l4.92,0Z" style="fill:#858585;fill-rule:nonzero;"/><path d="M123.056,163.476l2.448,0l6.048,17.664l-1.968,0l-1.776,-5.04l-7.104,0l-1.728,5.04l-1.968,0l6.048,-17.664Zm4.272,10.896l-3.048,-9.216l-3.096,9.216l6.144,0Z" style="fill:#858585;fill-rule:nonzero;"/><path d="M137.024,165.204l-5.472,0l0,-1.728l12.816,0l0,1.728l-5.448,0l0,15.936l-1.896,0l0,-15.936Z" style="fill:#858585;fill-rule:nonzero;"/><path d="M149.96,181.236c-1.008,0 -1.86,-0.236 -2.556,-0.708c-0.696,-0.472 -1.044,-1.38 -1.044,-2.724l0,-10.776c0,-1.248 0.336,-2.152 1.008,-2.712c0.672,-0.56 1.496,-0.84 2.472,-0.84c2.56,0.048 4.552,0.104 5.976,0.168l1.416,0.048l0,1.536l-6.912,0c-1.36,0 -2.04,0.704 -2.04,2.112l0,4.176l7.896,0.12l0,1.464l-7.896,0.12l0,4.152c0,0.816 0.192,1.368 0.576,1.656c0.384,0.288 0.904,0.432 1.56,0.432l6.816,0l0,1.536c-3.04,0.16 -5.464,0.24 -7.272,0.24Z" style="fill:#858585;fill-rule:nonzero;"/><path d="M160.784,163.476l1.56,0l9.216,14.376l0,-14.376l1.896,0l0,17.664l-1.56,0l-9.216,-14.376l0,14.376l-1.896,0l0,-17.664Z" style="fill:#858585;fill-rule:nonzero;"/><path d="M181.856,181.284c-0.752,0 -1.684,-0.044 -2.796,-0.132c-1.112,-0.088 -1.964,-0.188 -2.556,-0.3l0,-1.464c1.248,0.128 3.008,0.192 5.28,0.192c1.216,0 2.16,-0.192 2.832,-0.576c0.672,-0.384 1.008,-1.08 1.008,-2.088l0,-1.2c0,-1.664 -0.88,-2.496 -2.64,-2.496l-1.896,0c-1.52,0 -2.676,-0.332 -3.468,-0.996c-0.792,-0.664 -1.188,-1.756 -1.188,-3.276l0,-1.008c0,-1.616 0.432,-2.788 1.296,-3.516c0.864,-0.728 2.144,-1.092 3.84,-1.092c0.72,0 1.588,0.052 2.604,0.156c1.016,0.104 1.844,0.22 2.484,0.348l0,1.44c-2.16,-0.144 -3.792,-0.216 -4.896,-0.216c-1.184,0 -2.064,0.212 -2.64,0.636c-0.576,0.424 -0.864,1.196 -0.864,2.316l0,0.816c0,0.928 0.244,1.588 0.732,1.98c0.488,0.392 1.212,0.588 2.172,0.588l2.04,0c1.392,0 2.448,0.372 3.168,1.116c0.72,0.744 1.08,1.74 1.08,2.988l0,1.368c0,1.648 -0.5,2.796 -1.5,3.444c-1,0.648 -2.364,0.972 -4.092,0.972Z" style="fill:#858585;fill-rule:nonzero;"/><path d="M194.312,181.236c-1.008,0 -1.86,-0.236 -2.556,-0.708c-0.696,-0.472 -1.044,-1.38 -1.044,-2.724l0,-10.776c0,-1.248 0.336,-2.152 1.008,-2.712c0.672,-0.56 1.496,-0.84 2.472,-0.84c2.56,0.048 4.552,0.104 5.976,0.168l1.416,0.048l0,1.536l-6.912,0c-1.36,0 -2.04,0.704 -2.04,2.112l0,4.176l7.896,0.12l0,1.464l-7.896,0.12l0,4.152c0,0.816 0.192,1.368 0.576,1.656c0.384,0.288 0.904,0.432 1.56,0.432l6.816,0l0,1.536c-3.04,0.16 -5.464,0.24 -7.272,0.24Z" style="fill:#858585;fill-rule:nonzero;"/><path d="M205.136,163.476l1.56,0l9.216,14.376l0,-14.376l1.896,0l0,17.664l-1.56,0l-9.216,-14.376l0,14.376l-1.896,0l0,-17.664Z" style="fill:#858585;fill-rule:nonzero;"/><path d="M221.216,181.164c-0.112,0 -0.204,-0.036 -0.276,-0.108c-0.072,-0.072 -0.108,-0.164 -0.108,-0.276l0,-1.92c0,-0.256 0.128,-0.384 0.384,-0.384l1.056,0c0.256,0 0.384,0.128 0.384,0.384l0,1.92c0,0.256 -0.128,0.384 -0.384,0.384l-1.056,0Z" style="fill:#858585;fill-rule:nonzero;"/><path d="M231.296,181.284c-1.52,0 -2.72,-0.236 -3.6,-0.708c-0.88,-0.472 -1.536,-1.356 -1.968,-2.652c-0.432,-1.296 -0.648,-3.184 -0.648,-5.664c0,-2.352 0.224,-4.172 0.672,-5.46c0.448,-1.288 1.128,-2.188 2.04,-2.7c0.912,-0.512 2.128,-0.768 3.648,-0.768c0.736,0 1.58,0.06 2.532,0.18c0.952,0.12 1.796,0.276 2.532,0.468l0,1.416c-0.56,-0.08 -1.28,-0.16 -2.16,-0.24c-0.88,-0.08 -1.752,-0.12 -2.616,-0.12c-1.2,0 -2.136,0.196 -2.808,0.588c-0.672,0.392 -1.164,1.104 -1.476,2.136c-0.312,1.032 -0.468,2.54 -0.468,4.524c0,2.048 0.148,3.588 0.444,4.62c0.296,1.032 0.772,1.736 1.428,2.112c0.656,0.376 1.6,0.564 2.832,0.564c2.032,0 3.64,-0.104 4.824,-0.312l0,1.44c-0.736,0.176 -1.564,0.316 -2.484,0.42c-0.92,0.104 -1.828,0.156 -2.724,0.156Z" style="fill:#858585;fill-rule:nonzero;"/><path d="M245.6,181.284c-1.664,0 -2.972,-0.22 -3.924,-0.66c-0.952,-0.44 -1.672,-1.296 -2.16,-2.568c-0.488,-1.272 -0.732,-3.164 -0.732,-5.676c0,-2.496 0.252,-4.396 0.756,-5.7c0.504,-1.304 1.236,-2.188 2.196,-2.652c0.96,-0.464 2.248,-0.696 3.864,-0.696c1.664,0 2.976,0.228 3.936,0.684c0.96,0.456 1.68,1.336 2.16,2.64c0.48,1.304 0.72,3.212 0.72,5.724c0,2.512 -0.244,4.404 -0.732,5.676c-0.488,1.272 -1.208,2.128 -2.16,2.568c-0.952,0.44 -2.26,0.66 -3.924,0.66Zm0,-1.704c1.28,0 2.26,-0.176 2.94,-0.528c0.68,-0.352 1.18,-1.04 1.5,-2.064c0.32,-1.024 0.48,-2.56 0.48,-4.608c0,-2.128 -0.16,-3.712 -0.48,-4.752c-0.32,-1.04 -0.82,-1.732 -1.5,-2.076c-0.68,-0.344 -1.66,-0.516 -2.94,-0.516c-1.216,0 -2.168,0.172 -2.856,0.516c-0.688,0.344 -1.204,1.044 -1.548,2.1c-0.344,1.056 -0.516,2.632 -0.516,4.728c0,2.064 0.152,3.604 0.456,4.62c0.304,1.016 0.796,1.7 1.476,2.052c0.68,0.352 1.676,0.528 2.988,0.528Z" style="fill:#858585;fill-rule:nonzero;"/><path d="M270.176,181.14l-1.68,-14.664l-4.248,14.664l-1.752,0l-4.32,-14.544l-1.608,14.544l-1.848,0l2.016,-17.664l1.944,0l4.704,15.264l4.608,-15.264l1.968,0l2.064,17.664l-1.848,0Z" style="fill:#858585;fill-rule:nonzero;"/><path d="M32.216,122.034c-1.52,0 -2.72,-0.236 -3.6,-0.708c-0.88,-0.472 -1.536,-1.356 -1.968,-2.652c-0.432,-1.296 -0.648,-3.184 -0.648,-5.664c0,-2.352 0.224,-4.172 0.672,-5.46c0.448,-1.288 1.128,-2.188 2.04,-2.7c0.912,-0.512 2.128,-0.768 3.648,-0.768c0.736,0 1.58,0.06 2.532,0.18c0.952,0.12 1.796,0.276 2.532,0.468l0,1.416c-0.56,-0.08 -1.28,-0.16 -2.16,-0.24c-0.88,-0.08 -1.752,-0.12 -2.616,-0.12c-1.2,0 -2.136,0.196 -2.808,0.588c-0.672,0.392 -1.164,1.104 -1.476,2.136c-0.312,1.032 -0.468,2.54 -0.468,4.524c0,2.048 0.148,3.588 0.444,4.62c0.296,1.032 0.772,1.736 1.428,2.112c0.656,0.376 1.6,0.564 2.832,0.564c2.032,0 3.64,-0.104 4.824,-0.312l0,1.44c-0.736,0.176 -1.564,0.316 -2.484,0.42c-0.92,0.104 -1.828,0.156 -2.724,0.156Z" style="fill:#858585;fill-rule:nonzero;"/><path d="M40.352,109.074l1.44,0l0.456,2.232c0.624,-0.752 1.296,-1.336 2.016,-1.752c0.72,-0.416 1.512,-0.624 2.376,-0.624c0.432,0 0.832,0.04 1.2,0.12l0,1.944c-0.72,-0.08 -1.184,-0.12 -1.392,-0.12c-0.848,0 -1.58,0.152 -2.196,0.456c-0.616,0.304 -1.284,0.792 -2.004,1.464l0,9.096l-1.896,0l0,-12.816Z" style="fill:#858585;fill-rule:nonzero;"/><path d="M55.136,122.034c-1.376,0 -2.444,-0.2 -3.204,-0.6c-0.76,-0.4 -1.308,-1.072 -1.644,-2.016c-0.336,-0.944 -0.504,-2.264 -0.504,-3.96c0,-1.712 0.172,-3.04 0.516,-3.984c0.344,-0.944 0.9,-1.608 1.668,-1.992c0.768,-0.384 1.832,-0.576 3.192,-0.576c1.168,0 2.104,0.128 2.808,0.384c0.704,0.256 1.224,0.692 1.56,1.308c0.336,0.616 0.504,1.468 0.504,2.556c0,1.088 -0.316,1.876 -0.948,2.364c-0.632,0.488 -1.532,0.732 -2.7,0.732l-4.704,0c0.016,1.104 0.128,1.956 0.336,2.556c0.208,0.6 0.592,1.04 1.152,1.32c0.56,0.28 1.368,0.42 2.424,0.42l4.128,0l0,1.152c-0.864,0.112 -1.632,0.196 -2.304,0.252c-0.672,0.056 -1.432,0.084 -2.28,0.084Zm1.08,-7.032c0.736,0 1.272,-0.136 1.608,-0.408c0.336,-0.272 0.504,-0.744 0.504,-1.416c0,-1.072 -0.236,-1.812 -0.708,-2.22c-0.472,-0.408 -1.292,-0.612 -2.46,-0.612c-0.928,0 -1.64,0.136 -2.136,0.408c-0.496,0.272 -0.848,0.736 -1.056,1.392c-0.208,0.656 -0.312,1.608 -0.312,2.856l4.56,0Z" style="fill:#858585;fill-rule:nonzero;"/><path d="M65.72,122.034c-0.96,0 -1.74,-0.288 -2.34,-0.864c-0.6,-0.576 -0.9,-1.36 -0.9,-2.352l0,-0.912c0,-1.04 0.34,-1.864 1.02,-2.472c0.68,-0.608 1.676,-0.912 2.988,-0.912l4.344,0l0,-1.584c0,-0.864 -0.236,-1.504 -0.708,-1.92c-0.472,-0.416 -1.34,-0.624 -2.604,-0.624l-3.984,0l0,-1.128c1.504,-0.256 3.064,-0.384 4.68,-0.384c1.552,0 2.692,0.316 3.42,0.948c0.728,0.632 1.092,1.636 1.092,3.012l0,9.048l-1.464,0l-0.36,-1.464c-0.112,0.096 -0.46,0.28 -1.044,0.552c-0.584,0.272 -1.252,0.516 -2.004,0.732c-0.752,0.216 -1.464,0.324 -2.136,0.324Zm0.84,-1.416c0.432,0 0.96,-0.08 1.584,-0.24c0.624,-0.16 1.188,-0.328 1.692,-0.504c0.504,-0.176 0.836,-0.296 0.996,-0.36l0,-4.032l-3.912,0.168c-0.88,0.032 -1.524,0.248 -1.932,0.648c-0.408,0.4 -0.612,0.944 -0.612,1.632l0,0.576c0,0.736 0.212,1.272 0.636,1.608c0.424,0.336 0.94,0.504 1.548,0.504Z" style="fill:#858585;fill-rule:nonzero;"/><path d="M80.552,121.89c-1.264,0 -2.192,-0.324 -2.784,-0.972c-0.592,-0.648 -0.872,-1.708 -0.84,-3.18l0.072,-7.104l-2.04,0l0,-1.224l2.064,-0.336l0.312,-3.576l1.464,0l0,3.576l3.696,0l0,1.56l-3.696,0l0,7.104c0,0.976 0.184,1.644 0.552,2.004c0.368,0.36 0.832,0.564 1.392,0.612l1.56,0.144l0,1.392l-1.752,0Z" style="fill:#858585;fill-rule:nonzero;"/><path d="M90.008,122.034c-1.376,0 -2.444,-0.2 -3.204,-0.6c-0.76,-0.4 -1.308,-1.072 -1.644,-2.016c-0.336,-0.944 -0.504,-2.264 -0.504,-3.96c0,-1.712 0.172,-3.04 0.516,-3.984c0.344,-0.944 0.9,-1.608 1.668,-1.992c0.768,-0.384 1.832,-0.576 3.192,-0.576c1.168,0 2.104,0.128 2.808,0.384c0.704,0.256 1.224,0.692 1.56,1.308c0.336,0.616 0.504,1.468 0.504,2.556c0,1.088 -0.316,1.876 -0.948,2.364c-0.632,0.488 -1.532,0.732 -2.7,0.732l-4.704,0c0.016,1.104 0.128,1.956 0.336,2.556c0.208,0.6 0.592,1.04 1.152,1.32c0.56,0.28 1.368,0.42 2.424,0.42l4.128,0l0,1.152c-0.864,0.112 -1.632,0.196 -2.304,0.252c-0.672,0.056 -1.432,0.084 -2.28,0.084Zm1.08,-7.032c0.736,0 1.272,-0.136 1.608,-0.408c0.336,-0.272 0.504,-0.744 0.504,-1.416c0,-1.072 -0.236,-1.812 -0.708,-2.22c-0.472,-0.408 -1.292,-0.612 -2.46,-0.612c-0.928,0 -1.64,0.136 -2.136,0.408c-0.496,0.272 -0.848,0.736 -1.056,1.392c-0.208,0.656 -0.312,1.608 -0.312,2.856l4.56,0Z" style="fill:#858585;fill-rule:nonzero;"/><path d="M102.248,122.034c-1.584,0 -2.748,-0.52 -3.492,-1.56c-0.744,-1.04 -1.116,-2.672 -1.116,-4.896c0,-1.6 0.16,-2.888 0.48,-3.864c0.32,-0.976 0.832,-1.688 1.536,-2.136c0.704,-0.448 1.648,-0.672 2.832,-0.672c1.216,0 2.528,0.256 3.936,0.768l0,-6.096l1.896,0l0,18.312l-1.536,0l-0.36,-1.296c-0.384,0.336 -1,0.66 -1.848,0.972c-0.848,0.312 -1.624,0.468 -2.328,0.468Zm0.552,-1.56c0.672,0 1.292,-0.1 1.86,-0.3c0.568,-0.2 1.156,-0.46 1.764,-0.78l0,-8.376c-0.752,-0.224 -1.364,-0.384 -1.836,-0.48c-0.472,-0.096 -1.004,-0.144 -1.596,-0.144c-0.848,0 -1.52,0.156 -2.016,0.468c-0.496,0.312 -0.86,0.836 -1.092,1.572c-0.232,0.736 -0.348,1.76 -0.348,3.072c0,1.792 0.248,3.068 0.744,3.828c0.496,0.76 1.336,1.14 2.52,1.14Z" style="fill:#858585;fill-rule:nonzero;"/><path d="M118.664,106.794c-0.112,0 -0.204,-0.036 -0.276,-0.108c-0.072,-0.072 -0.108,-0.164 -0.108,-0.276l0,-1.872c0,-0.256 0.128,-0.384 0.384,-0.384l1.344,0c0.24,0 0.36,0.128 0.36,0.384l0,1.872c0,0.256 -0.12,0.384 -0.36,0.384l-1.344,0Zm-0.288,2.28l1.896,0l0,12.816l-1.896,0l0,-12.816Z" style="fill:#858585;fill-rule:nonzero;"/><path d="M123.92,109.074l1.488,0l0.408,1.416c0.672,-0.464 1.416,-0.852 2.232,-1.164c0.816,-0.312 1.632,-0.468 2.448,-0.468c1.328,0 2.32,0.408 2.976,1.224c0.656,0.816 0.984,1.848 0.984,3.096l0,8.712l-1.896,0l0,-8.496c0,-0.832 -0.236,-1.508 -0.708,-2.028c-0.472,-0.52 -1.124,-0.78 -1.956,-0.78c-0.768,0 -1.452,0.1 -2.052,0.3c-0.6,0.2 -1.276,0.516 -2.028,0.948l0,10.056l-1.896,0l0,-12.816Z" style="fill:#858585;fill-rule:nonzero;"/><path d="M45.56,152.716l-1.71,-14.52l-3.87,14.52l-4.17,0l-3.87,-14.34l-1.65,14.34l-4.29,0l2.58,-22.2l4.26,0l5.1,17.01l5.07,-17.01l4.23,0l2.61,22.2l-4.29,0Z" style="fill:#858585;fill-rule:nonzero;"/><path d="M59.48,152.866c-1.82,0 -3.26,-0.255 -4.32,-0.765c-1.06,-0.51 -1.835,-1.36 -2.325,-2.55c-0.49,-1.19 -0.735,-2.835 -0.735,-4.935c0,-2.18 0.245,-3.865 0.735,-5.055c0.49,-1.19 1.265,-2.02 2.325,-2.49c1.06,-0.47 2.5,-0.705 4.32,-0.705c1.84,0 3.29,0.245 4.35,0.735c1.06,0.49 1.835,1.33 2.325,2.52c0.49,1.19 0.735,2.855 0.735,4.995c0,2.14 -0.24,3.805 -0.72,4.995c-0.48,1.19 -1.25,2.03 -2.31,2.52c-1.06,0.49 -2.52,0.735 -4.38,0.735Zm0,-3.54c0.78,0 1.37,-0.105 1.77,-0.315c0.4,-0.21 0.7,-0.65 0.9,-1.32c0.2,-0.67 0.3,-1.695 0.3,-3.075c0,-1.38 -0.1,-2.405 -0.3,-3.075c-0.2,-0.67 -0.5,-1.11 -0.9,-1.32c-0.4,-0.21 -0.99,-0.315 -1.77,-0.315c-0.76,0 -1.34,0.105 -1.74,0.315c-0.4,0.21 -0.7,0.65 -0.9,1.32c-0.2,0.67 -0.3,1.695 -0.3,3.075c0,1.38 0.1,2.405 0.3,3.075c0.2,0.67 0.5,1.11 0.9,1.32c0.4,0.21 0.98,0.315 1.74,0.315Z" style="fill:#858585;fill-rule:nonzero;"/><path d="M76.73,152.866c-1.82,0 -3.26,-0.255 -4.32,-0.765c-1.06,-0.51 -1.835,-1.36 -2.325,-2.55c-0.49,-1.19 -0.735,-2.835 -0.735,-4.935c0,-2.18 0.245,-3.865 0.735,-5.055c0.49,-1.19 1.265,-2.02 2.325,-2.49c1.06,-0.47 2.5,-0.705 4.32,-0.705c1.84,0 3.29,0.245 4.35,0.735c1.06,0.49 1.835,1.33 2.325,2.52c0.49,1.19 0.735,2.855 0.735,4.995c0,2.14 -0.24,3.805 -0.72,4.995c-0.48,1.19 -1.25,2.03 -2.31,2.52c-1.06,0.49 -2.52,0.735 -4.38,0.735Zm0,-3.54c0.78,0 1.37,-0.105 1.77,-0.315c0.4,-0.21 0.7,-0.65 0.9,-1.32c0.2,-0.67 0.3,-1.695 0.3,-3.075c0,-1.38 -0.1,-2.405 -0.3,-3.075c-0.2,-0.67 -0.5,-1.11 -0.9,-1.32c-0.4,-0.21 -0.99,-0.315 -1.77,-0.315c-0.76,0 -1.34,0.105 -1.74,0.315c-0.4,0.21 -0.7,0.65 -0.9,1.32c-0.2,0.67 -0.3,1.695 -0.3,3.075c0,1.38 0.1,2.405 0.3,3.075c0.2,0.67 0.5,1.11 0.9,1.32c0.4,0.21 0.98,0.315 1.74,0.315Z" style="fill:#858585;fill-rule:nonzero;"/><path d="M87.08,136.606l3.66,0l0.78,1.65c0.66,-0.54 1.45,-0.995 2.37,-1.365c0.92,-0.37 1.82,-0.555 2.7,-0.555c1.82,0 3.11,0.52 3.87,1.56c0.76,1.04 1.14,2.44 1.14,4.2l0,10.62l-4.44,0l0,-10.05c0,-0.76 -0.205,-1.34 -0.615,-1.74c-0.41,-0.4 -0.975,-0.6 -1.695,-0.6c-1.1,0 -2.21,0.4 -3.33,1.2l0,11.19l-4.44,0l0,-16.11Z" style="fill:#858585;fill-rule:nonzero;"/><path d="M131.84,152.716l-1.71,-14.52l-3.87,14.52l-4.17,0l-3.87,-14.34l-1.65,14.34l-4.29,0l2.58,-22.2l4.26,0l5.1,17.01l5.07,-17.01l4.23,0l2.61,22.2l-4.29,0Z" style="fill:#858585;fill-rule:nonzero;"/><path d="M145.76,152.866c-1.82,0 -3.26,-0.255 -4.32,-0.765c-1.06,-0.51 -1.835,-1.36 -2.325,-2.55c-0.49,-1.19 -0.735,-2.835 -0.735,-4.935c0,-2.18 0.245,-3.865 0.735,-5.055c0.49,-1.19 1.265,-2.02 2.325,-2.49c1.06,-0.47 2.5,-0.705 4.32,-0.705c1.84,0 3.29,0.245 4.35,0.735c1.06,0.49 1.835,1.33 2.325,2.52c0.49,1.19 0.735,2.855 0.735,4.995c0,2.14 -0.24,3.805 -0.72,4.995c-0.48,1.19 -1.25,2.03 -2.31,2.52c-1.06,0.49 -2.52,0.735 -4.38,0.735Zm0,-3.54c0.78,0 1.37,-0.105 1.77,-0.315c0.4,-0.21 0.7,-0.65 0.9,-1.32c0.2,-0.67 0.3,-1.695 0.3,-3.075c0,-1.38 -0.1,-2.405 -0.3,-3.075c-0.2,-0.67 -0.5,-1.11 -0.9,-1.32c-0.4,-0.21 -0.99,-0.315 -1.77,-0.315c-0.76,0 -1.34,0.105 -1.74,0.315c-0.4,0.21 -0.7,0.65 -0.9,1.32c-0.2,0.67 -0.3,1.695 -0.3,3.075c0,1.38 0.1,2.405 0.3,3.075c0.2,0.67 0.5,1.11 0.9,1.32c0.4,0.21 0.98,0.315 1.74,0.315Z" style="fill:#858585;fill-rule:nonzero;"/><path d="M161.39,152.896c-1.94,0 -3.385,-0.63 -4.335,-1.89c-0.95,-1.26 -1.425,-3.32 -1.425,-6.18c0,-2.04 0.185,-3.67 0.555,-4.89c0.37,-1.22 0.995,-2.12 1.875,-2.7c0.88,-0.58 2.09,-0.87 3.63,-0.87c1.32,0 2.69,0.25 4.11,0.75l0,-7.29l4.47,0l0,22.89l-3.75,0l-0.72,-1.53c-0.56,0.48 -1.24,0.885 -2.04,1.215c-0.8,0.33 -1.59,0.495 -2.37,0.495Zm1.56,-3.57c0.96,0 1.91,-0.3 2.85,-0.9l0,-8.1c-0.52,-0.2 -0.985,-0.355 -1.395,-0.465c-0.41,-0.11 -0.835,-0.165 -1.275,-0.165c-0.78,0 -1.385,0.135 -1.815,0.405c-0.43,0.27 -0.745,0.76 -0.945,1.47c-0.2,0.71 -0.3,1.725 -0.3,3.045c0,1.26 0.095,2.225 0.285,2.895c0.19,0.67 0.49,1.14 0.9,1.41c0.41,0.27 0.975,0.405 1.695,0.405Z" style="fill:#858585;fill-rule:nonzero;"/><path d="M180.38,152.866c-1.82,0 -3.25,-0.24 -4.29,-0.72c-1.04,-0.48 -1.795,-1.31 -2.265,-2.49c-0.47,-1.18 -0.705,-2.84 -0.705,-4.98c0,-2.2 0.22,-3.895 0.66,-5.085c0.44,-1.19 1.165,-2.025 2.175,-2.505c1.01,-0.48 2.435,-0.72 4.275,-0.72c1.64,0 2.93,0.16 3.87,0.48c0.94,0.32 1.625,0.88 2.055,1.68c0.43,0.8 0.645,1.93 0.645,3.39c0,1.56 -0.445,2.67 -1.335,3.33c-0.89,0.66 -2.185,0.99 -3.885,0.99l-4.05,0c0.04,0.86 0.17,1.525 0.39,1.995c0.22,0.47 0.61,0.81 1.17,1.02c0.56,0.21 1.38,0.315 2.46,0.315l4.71,0l0,2.61c-1.06,0.22 -2.02,0.39 -2.88,0.51c-0.86,0.12 -1.86,0.18 -3,0.18Zm0.75,-9.27c0.62,0 1.065,-0.125 1.335,-0.375c0.27,-0.25 0.405,-0.675 0.405,-1.275c0,-0.88 -0.2,-1.495 -0.6,-1.845c-0.4,-0.35 -1.08,-0.525 -2.04,-0.525c-0.7,0 -1.245,0.115 -1.635,0.345c-0.39,0.23 -0.675,0.635 -0.855,1.215c-0.18,0.58 -0.27,1.4 -0.27,2.46l3.66,0Z" style="fill:#858585;fill-rule:nonzero;"/><path d="M194.75,152.776c-1.7,0 -2.965,-0.425 -3.795,-1.275c-0.83,-0.85 -1.245,-2.175 -1.245,-3.975l0,-17.7l4.44,0l0,17.04c0,0.86 0.13,1.475 0.39,1.845c0.26,0.37 0.69,0.595 1.29,0.675l1.23,0.18l0,3.21l-2.31,0Z" style="fill:#858585;fill-rule:nonzero;"/><path d="M205.88,152.866c-1.82,0 -3.25,-0.24 -4.29,-0.72c-1.04,-0.48 -1.795,-1.31 -2.265,-2.49c-0.47,-1.18 -0.705,-2.84 -0.705,-4.98c0,-2.2 0.22,-3.895 0.66,-5.085c0.44,-1.19 1.165,-2.025 2.175,-2.505c1.01,-0.48 2.435,-0.72 4.275,-0.72c1.64,0 2.93,0.16 3.87,0.48c0.94,0.32 1.625,0.88 2.055,1.68c0.43,0.8 0.645,1.93 0.645,3.39c0,1.56 -0.445,2.67 -1.335,3.33c-0.89,0.66 -2.185,0.99 -3.885,0.99l-4.05,0c0.04,0.86 0.17,1.525 0.39,1.995c0.22,0.47 0.61,0.81 1.17,1.02c0.56,0.21 1.38,0.315 2.46,0.315l4.71,0l0,2.61c-1.06,0.22 -2.02,0.39 -2.88,0.51c-0.86,0.12 -1.86,0.18 -3,0.18Zm0.75,-9.27c0.62,0 1.065,-0.125 1.335,-0.375c0.27,-0.25 0.405,-0.675 0.405,-1.275c0,-0.88 -0.2,-1.495 -0.6,-1.845c-0.4,-0.35 -1.08,-0.525 -2.04,-0.525c-0.7,0 -1.245,0.115 -1.635,0.345c-0.39,0.23 -0.675,0.635 -0.855,1.215c-0.18,0.58 -0.27,1.4 -0.27,2.46l3.66,0Z" style="fill:#858585;fill-rule:nonzero;"/><path d="M215.21,136.606l3.42,0l1.02,2.46c0.64,-0.84 1.325,-1.495 2.055,-1.965c0.73,-0.47 1.565,-0.705 2.505,-0.705c0.52,0 0.96,0.05 1.32,0.15l0,4.56c-1.04,-0.1 -1.67,-0.15 -1.89,-0.15c-0.86,0 -1.6,0.14 -2.22,0.42c-0.62,0.28 -1.21,0.72 -1.77,1.32l0,10.02l-4.44,0l0,-16.11Z" style="fill:#858585;fill-rule:nonzero;"/></g></svg>